<?xml version="1.0" standalone="no"?><!DOCTYPE svg PUBLIC "-//W3C//DTD SVG 1.1//EN" "http://www.w3.org/Graphics/SVG/1.1/DTD/svg11.dtd"><svg class="icon" width="30px" height="30.00px" viewBox="0 0 1024 1024" version="1.1" xmlns="http://www.w3.org/2000/svg"><path d="M762.054079 141.113925c-14.304797-9.658987-33.719986-5.897314-43.36874 8.393157-9.658987 14.295588-5.897314 33.709753 8.398274 43.36874 106.359376 71.856561 169.858596 191.276395 169.858596 319.443449 0 212.408691-172.806741 385.215432-385.215432 385.215432S126.511345 724.727962 126.511345 512.319272c0-128.168078 63.49922-247.586888 169.853479-319.443449 14.295588-9.658987 18.057261-29.073152 8.398274-43.36874-9.653871-14.290471-29.062919-18.052145-43.363623-8.393157C137.822972 224.602408 64.044642 363.368868 64.044642 512.319272c0 246.855224 200.827935 447.683159 447.683159 447.683159s447.683159-200.827935 447.683159-447.683159C959.409936 363.373984 885.631606 224.602408 762.054079 141.113925z" fill="#999999" /><path d="M400.25087 64.636113c-17.248849 0-31.233352 13.985526-31.233352 31.233352l0 30.476105c0 17.248849 13.985526 31.233352 31.233352 31.233352s31.233352-13.985526 31.233352-31.233352L431.484222 95.869465C431.485245 78.620615 417.499719 64.636113 400.25087 64.636113z" fill="#999999" /><path d="M623.203708 64.636113c-17.248849 0-31.233352 13.985526-31.233352 31.233352l0 30.476105c0 17.248849 13.985526 31.233352 31.233352 31.233352s31.233352-13.985526 31.233352-31.233352L654.43706 95.869465C654.43706 78.620615 640.451534 64.636113 623.203708 64.636113z" fill="#999999" /><path d="M425.248194 227.656977c11.209296 18.047028 41.974997 48.588625 86.157265 48.588625 43.958164 0 75.100442-30.3134 86.573751-48.223305 9.302877-14.528901 5.068436-33.846876-9.455349-43.149752-14.539134-9.31311-33.846876-5.063319-43.149752 9.455349-0.121773 0.198521-13.379729 19.449981-33.968649 19.449981-20.008706 0-32.443923-18.127869-33.276894-19.373233-9.175987-14.427594-28.28009-18.799158-42.829458-9.760295C420.642293 193.749726 416.143838 213.006302 425.248194 227.656977z" fill="#999999" /><path d="M534.131043 408.207076c17.248849 0 31.233352-13.985526 31.233352-31.233352L565.364395 366.561583c0-17.248849-13.985526-31.233352-31.233352-31.233352s-31.233352 13.985526-31.233352 31.233352l0 10.411117C502.897691 394.22155 516.883217 408.207076 534.131043 408.207076z" fill="#999999" /><path d="M612.042507 668.630317c-9.674337-14.285355-29.083385-18.031679-43.373857-8.336876l-37.146015 25.164123 33.449833-209.866798c1.962701-12.297071-3.568269-24.583908-14.0766-31.269168-10.498098-6.680143-23.974018-6.491855-34.283828 0.49835l-96.863095 65.63486c-14.285355 9.674337-18.016329 29.093619-8.336876 43.373857 9.674337 14.285355 29.098735 18.026562 43.372833 8.336876l37.146015-25.169239-33.449833 209.866798c-1.962701 12.297071 3.568269 24.583908 14.0766 31.269168 5.119601 3.258207 10.945283 4.880147 16.765849 4.880147 6.120394 0 12.236696-1.794879 17.517979-5.378497l96.863095-65.629743C617.98587 702.328813 621.721961 682.909531 612.042507 668.630317z" fill="#999999" /></svg>
